<?xml version="1.0" encoding="utf-8"?>
<!-- Generator: Adobe Illustrator 24.1.2, SVG Export Plug-In . SVG Version: 6.00 Build 0)  -->
<svg version="1.1" xmlns="http://www.w3.org/2000/svg" xmlns:xlink="http://www.w3.org/1999/xlink" x="0px" y="0px"
	 viewBox="0 0 1215 537.1" style="enable-background:new 0 0 1215 537.1;" xml:space="preserve">
<style type="text/css">
	.st0{fill:none;stroke:#1D1E1C;stroke-miterlimit:10;}
	.st1{opacity:0.15;fill:none;stroke:#1D1E1C;stroke-width:0.25;stroke-miterlimit:10;}
	.st2{opacity:0.5;}
	.st3{opacity:0.5;fill:none;stroke:#1D1E1C;stroke-width:0.25;stroke-miterlimit:10;}
	.st4{fill:none;stroke:#AAD3B4;stroke-width:2;stroke-miterlimit:10;}
	.st5{fill:none;stroke:#F0DBA2;stroke-width:2;stroke-miterlimit:10;}
	.st6{fill:none;stroke:#BA998A;stroke-width:2;stroke-miterlimit:10;}
	.st7{fill:none;}
	.st8{fill:#8FB197;}
	.st9{font-family:'Sole24Sans-Medium';}
	.st10{font-size:7.29px;}
	.st11{fill:#DCC797;}
	.st12{fill:#BB998A;}
	.st13{fill:#989898;}
	.st14{font-family:'Sole24Sans-Regular';}
	.st15{font-size:5.832px;}
</style>
<g id="Livello_1">
</g>
<g id="Livello_2">
	<g>
		<rect x="210.2" y="61.1" class="st7" width="29" height="6.7"/>
		<text transform="matrix(1 0 0 1 210.1705 66.2966)" class="st8 st9 st10">gennaio </text>
	</g>
	<g>
		<rect x="255.9" y="61.1" class="st7" width="29" height="6.7"/>
		<text transform="matrix(1 0 0 1 255.8644 66.2966)" class="st11 st9 st10">febbraio </text>
	</g>
	<g>
		<rect x="304.2" y="61.1" class="st7" width="29" height="6.7"/>
		<text transform="matrix(1 0 0 1 304.2467 66.2966)"><tspan x="0" y="0" class="st12 st9 st10">marzo</tspan><tspan x="19.1" y="0" class="st11 st9 st10"> </tspan></text>
	</g>
	<g>
		<rect x="990.7" y="469.3" class="st7" width="34.5" height="6.7"/>
		<text transform="matrix(1 0 0 1 990.714 473.3747)" class="st13 st14 st15">fonte:Auditel</text>
	</g>
	<line class="st1" x1="1025.2" y1="434" x2="208.7" y2="434"/>
	<g>
		<rect x="194.7" y="415.9" class="st7" width="14" height="6.7"/>
		<text transform="matrix(1 0 0 1 194.6793 421.0358)" class="st13 st14 st10">1M</text>
	</g>
	<g>
		<rect x="189.8" y="166.6" class="st7" width="18.9" height="6.7"/>
		<text transform="matrix(1 0 0 1 189.7887 171.7175)" class="st13 st14 st10">20M</text>
	</g>
	<g class="st2">
		<line class="st3" x1="208.7" y1="78.1" x2="1025.2" y2="78.1"/>
		<line class="st1" x1="208.7" y1="91.2" x2="1025.2" y2="91.2"/>
		<line class="st1" x1="208.7" y1="104.3" x2="1025.2" y2="104.3"/>
		<line class="st1" x1="208.7" y1="117.4" x2="1025.2" y2="117.4"/>
		<line class="st1" x1="208.7" y1="130.6" x2="1025.2" y2="130.6"/>
		<line class="st1" x1="208.7" y1="143.7" x2="1025.2" y2="143.7"/>
		<line class="st1" x1="208.7" y1="156.6" x2="1025.2" y2="156.6"/>
		<line class="st3" x1="208.7" y1="169.7" x2="1025.2" y2="169.7"/>
		<line class="st1" x1="208.7" y1="182.9" x2="1025.2" y2="182.9"/>
		<line class="st1" x1="208.7" y1="196" x2="1025.2" y2="196"/>
		<line class="st1" x1="208.7" y1="209.1" x2="1025.2" y2="209.1"/>
		<line class="st1" x1="208.7" y1="222.2" x2="1025.2" y2="222.2"/>
		<line class="st1" x1="208.7" y1="235" x2="1025.2" y2="235"/>
		<line class="st1" x1="208.7" y1="248.1" x2="1025.2" y2="248.1"/>
		<line class="st1" x1="208.7" y1="261.2" x2="1025.2" y2="261.2"/>
		<line class="st1" x1="208.7" y1="274.3" x2="1025.2" y2="274.3"/>
		<line class="st1" x1="208.7" y1="287.5" x2="1025.2" y2="287.5"/>
		<line class="st3" x1="208.7" y1="300.6" x2="1025.2" y2="300.6"/>
		<line class="st1" x1="208.7" y1="313.9" x2="1025.2" y2="313.9"/>
		<line class="st1" x1="208.7" y1="327" x2="1025.2" y2="327"/>
		<line class="st1" x1="208.7" y1="340.2" x2="1025.2" y2="340.2"/>
		<line class="st1" x1="208.7" y1="353.3" x2="1025.2" y2="353.3"/>
		<line class="st1" x1="208.7" y1="366.4" x2="1025.2" y2="366.4"/>
		<line class="st1" x1="208.7" y1="379.5" x2="1025.2" y2="379.5"/>
		<line class="st1" x1="208.7" y1="392.6" x2="1025.2" y2="392.6"/>
		<line class="st1" x1="208.7" y1="405.8" x2="1025.2" y2="405.8"/>
		<line class="st1" x1="208.7" y1="418.9" x2="1025.2" y2="418.9"/>
	</g>
	<g>
		<rect x="306.9" y="439.4" class="st7" width="16.5" height="13.4"/>
		<text transform="matrix(1 0 0 1 307.9425 443.5534)"><tspan x="0" y="0" class="st13 st14 st15">07:00</tspan><tspan x="-0.3" y="7" class="st13 st14 st15">09:00</tspan></text>
	</g>
	<g>
		<rect x="189.8" y="74.7" class="st7" width="18.9" height="6.7"/>
		<text transform="matrix(1 0 0 1 189.7887 79.8639)" class="st13 st14 st10">27M</text>
	</g>
	<g>
		<rect x="190.5" y="297.2" class="st7" width="18.2" height="6.7"/>
		<text transform="matrix(1 0 0 1 190.4571 302.3815)" class="st13 st14 st10">10M</text>
	</g>
	<g>
		<rect x="429" y="439.4" class="st7" width="16.5" height="13.4"/>
		<text transform="matrix(1 0 0 1 429.7701 443.5534)"><tspan x="0" y="0" class="st13 st14 st15">09:00</tspan><tspan x="0.5" y="7" class="st13 st14 st15">12:00</tspan></text>
	</g>
	<g>
		<rect x="553.2" y="439.4" class="st7" width="16.5" height="13.4"/>
		<text transform="matrix(1 0 0 1 554.5499 443.5534)"><tspan x="0" y="0" class="st13 st14 st15">12:00</tspan><tspan x="0" y="7" class="st13 st14 st15">15:00</tspan></text>
	</g>
	<g>
		<rect x="680.4" y="439.4" class="st7" width="16.5" height="13.4"/>
		<text transform="matrix(1 0 0 1 681.7238 443.5534)"><tspan x="0" y="0" class="st13 st14 st15">15:00</tspan><tspan x="-0.1" y="7" class="st13 st14 st15">18:00</tspan></text>
	</g>
	<g>
		<rect x="806.4" y="439.4" class="st7" width="16.5" height="13.4"/>
		<text transform="matrix(1 0 0 1 807.5836 443.5534)"><tspan x="0" y="0" class="st13 st14 st15">18:00</tspan><tspan x="-0.1" y="7" class="st13 st14 st15">20:30</tspan></text>
	</g>
	<g>
		<rect x="927.2" y="439.4" class="st7" width="16.5" height="13.4"/>
		<text transform="matrix(1 0 0 1 928.2238 443.5534)"><tspan x="0" y="0" class="st13 st14 st15">20:30</tspan><tspan x="0" y="7" class="st13 st14 st15">22:00</tspan></text>
	</g>
	<polyline id="Marzo" class="st6" points="316.5,353.3 437.5,318.2 562.6,206.9 690.3,240 816,148.9 936.8,74.7 	"/>
	<polyline id="Febbraio" class="st5" points="315.1,365.8 436.2,350.9 562.6,258.9 689,277.5 814.6,198.8 935.5,114.1 	"/>
	<polyline id="Gennaio" class="st4" points="315.1,373 436.6,353.1 562.6,261.2 689,330.4 814.6,206 935.5,130.6 	"/>
</g>
</svg>
