<?xml version="1.0" encoding="utf-8"?>
<!-- Generator: Adobe Illustrator 24.1.2, SVG Export Plug-In . SVG Version: 6.00 Build 0)  -->
<svg version="1.1" xmlns="http://www.w3.org/2000/svg" xmlns:xlink="http://www.w3.org/1999/xlink" x="0px" y="0px"
	 viewBox="0 0 89.58 624.31" enable-background="new 0 0 89.58 624.31" xml:space="preserve">
<g id="news_pubblicate">
</g>
<g id="trenitalia">
</g>
<g id="supermercati">
</g>
<g id="mascherine">
</g>
<g id="linee">
</g>
<g id="date">
	<rect y="618.4" fill="none" width="89.58" height="4.66"/>
	
		<text transform="matrix(1 0 0 1 21.9196 622.6086)" opacity="0.3" fill="#1D1D1B" font-family="'Sole24Sans-LightExtended'" font-size="6px">13 APRILE 2020</text>
	<rect y="564.35" fill="none" width="89.58" height="4.66"/>
	
		<text transform="matrix(1 0 0 1 21.9196 568.5662)" opacity="0.3" fill="#1D1D1B" font-family="'Sole24Sans-LightExtended'" font-size="6px">06 APRILE 2020</text>
	<rect y="510.31" fill="none" width="89.58" height="4.66"/>
	
		<text transform="matrix(1 0 0 1 21.6676 514.5232)" opacity="0.3" fill="#1D1D1B" font-family="'Sole24Sans-LightExtended'" font-size="6px">30 MARZO 2020</text>
	<rect y="456.06" fill="none" width="89.58" height="4.66"/>
	
		<text transform="matrix(1 0 0 1 21.6676 460.2712)" opacity="0.3" fill="#1D1D1B" font-family="'Sole24Sans-LightExtended'" font-size="6px">23 MARZO 2020</text>
	<rect y="402.23" fill="none" width="89.58" height="4.66"/>
	
		<text transform="matrix(1 0 0 1 21.6676 406.4382)" opacity="0.3" fill="#1D1D1B" font-family="'Sole24Sans-LightExtended'" font-size="6px">16 MARZO 2020</text>
	<rect y="355.9" fill="none" width="89.58" height="4.66"/>
	
		<text transform="matrix(1 0 0 1 21.6676 360.116)" opacity="0.3" fill="#1D1D1B" font-family="'Sole24Sans-LightExtended'" font-size="6px">10 MARZO 2020</text>
	<rect y="348.18" fill="none" width="89.58" height="4.66"/>
	
		<text transform="matrix(1 0 0 1 21.6676 352.3953)" opacity="0.3" fill="#1D1D1B" font-family="'Sole24Sans-LightExtended'" font-size="6px">09 MARZO 2020</text>
	<rect y="332.62" fill="none" width="89.58" height="4.66"/>
	
		<text transform="matrix(1 0 0 1 21.6676 336.8303)" opacity="0.3" fill="#1D1D1B" font-family="'Sole24Sans-LightExtended'" font-size="6px">07 MARZO 2020</text>
	<rect y="294.05" fill="none" width="89.58" height="4.66"/>
	
		<text transform="matrix(1 0 0 1 21.6676 298.2627)" opacity="0.3" fill="#1D1D1B" font-family="'Sole24Sans-LightExtended'" font-size="6px">02 MARZO 2020</text>
	<rect y="240.1" fill="none" width="89.58" height="4.66"/>
	
		<text transform="matrix(1 0 0 1 17.4948 244.3111)" opacity="0.3" fill="#1D1D1B" font-family="'Sole24Sans-LightExtended'" font-size="6px">24 FEBBRAIO 2020</text>
	<rect y="186.06" fill="none" width="89.58" height="4.66"/>
	
		<text transform="matrix(1 0 0 1 17.4948 190.2681)" opacity="0.3" fill="#1D1D1B" font-family="'Sole24Sans-LightExtended'" font-size="6px">17 FEBBRAIO 2020</text>
	<rect y="132.01" fill="none" width="89.58" height="4.66"/>
	
		<text transform="matrix(1 0 0 1 17.4948 136.2256)" opacity="0.3" fill="#1D1D1B" font-family="'Sole24Sans-LightExtended'" font-size="6px">10 FEBBRAIO 2020</text>
	<rect y="80.3" fill="none" width="89.58" height="4.66"/>
	
		<text transform="matrix(1 0 0 1 17.4948 84.5117)" opacity="0.3" fill="#1D1D1B" font-family="'Sole24Sans-LightExtended'" font-size="6px">03 FEBBRAIO 2020</text>
	<rect y="55.93" fill="none" width="89.58" height="4.66"/>
	
		<text transform="matrix(1 0 0 1 18.4908 60.1401)" opacity="0.3" fill="#1D1D1B" font-family="'Sole24Sans-LightExtended'" font-size="6px">31 GENNAIO 2020</text>
	<rect y="38.93" fill="none" width="89.58" height="4.66"/>
	
		<text transform="matrix(1 0 0 1 18.4908 43.1401)" opacity="0.3" fill="#1D1D1B" font-family="'Sole24Sans-LightExtended'" font-size="6px">29 GENNAIO 2020</text>
	<rect y="25.4" fill="none" width="89.58" height="4.66"/>
	
		<text transform="matrix(1 0 0 1 18.4908 29.6088)" opacity="0.3" fill="#1D1D1B" font-family="'Sole24Sans-LightExtended'" font-size="6px">27 GENNAIO 2020</text>
	<rect y="16.47" fill="none" width="89.58" height="4.66"/>
	
		<text transform="matrix(1 0 0 1 18.4908 20.6787)" opacity="0.3" fill="#1D1D1B" font-family="'Sole24Sans-LightExtended'" font-size="6px">26 GENNAIO 2020</text>
	<rect y="0.73" fill="none" width="89.58" height="4.66"/>
	
		<text transform="matrix(1 0 0 1 18.4908 4.9414)" opacity="0.3" fill="#1D1D1B" font-family="'Sole24Sans-LightExtended'" font-size="6px">24 GENNAIO 2020</text>
</g>
</svg>
