<?xml version="1.0" encoding="utf-8"?>
<!-- Generator: Adobe Illustrator 24.1.2, SVG Export Plug-In . SVG Version: 6.00 Build 0)  -->
<svg version="1.1" xmlns="http://www.w3.org/2000/svg" xmlns:xlink="http://www.w3.org/1999/xlink" x="0px" y="0px"
	 viewBox="0 0 71.08 616.67" enable-background="new 0 0 71.08 616.67" xml:space="preserve">
<g id="news_pubblicate">
	<path id="trend_1" fill="none" stroke="#6699FF" stroke-miterlimit="10" d="M2.09,0.47l25.87,8.55l-13.95,7.87l-0.55,7.87
		L2.09,32.62l12.11,6.84l0.83,8.21L2.09,55.53v15.73l11.93,7.18L2.09,86.31l12.94,7.87l-12.94,8.21v14.7l12.94,7.52l-12.94,7.87V140
		l18.53,7.18l-6.42,8.21l-12.11,7.87v7.18l13.76,8.21l32.11,7.52l-22.94,7.52l-11.93,7.87l1.47,5.81l0.18,8.97l0.92,7.45l5.69,8.21
		l-19.27,8.55v14.7l11.38,7.87l0.73,7.18l-12.11,8.21v6.08l11.19,8.62l0.18,7.18l10.09,7.87l1.47,8.21l-22.94,7.87l35.97,6.84
		l5.87,8.55l-6.61,7.87l-24.59,7.18l54.31,7.87l-64.96,6.82l21.84,8.57l-21.84,7.87l23.49,8.18l8.99,6.62v7.41l-21.65,8.12v8.11
		l16.51,6.5l-9.05,8.97c0,0,5.08,6.84,4.65,7.3s-14.8,7.3-14.8,7.3l19.08,7.75l-19.08,7.52l19.21,8.21l-20.06,7.75l15.17,7.07
		l-21.65,7.3l-0.12,2.74l9.54,5.7v7.75l18.84,7.52l-29.05,7.3l11.19,7.75l1.1,6.84v9.12l-11.62,7.3l11.13,7.98l-11.8,7.52l11.68,7.3
		v8.44l-11.68,7.75l24.89,15.27"/>
</g>

</svg>
