<?xml version="1.0" encoding="utf-8"?>
<!-- Generator: Adobe Illustrator 24.1.2, SVG Export Plug-In . SVG Version: 6.00 Build 0)  -->
<svg id="mascherine" version="1.1" xmlns="http://www.w3.org/2000/svg" xmlns:xlink="http://www.w3.org/1999/xlink" x="0px" y="0px"
	 viewBox="0 0 35.81 617.63" enable-background="new 0 0 35.81 617.63" xml:space="preserve">

<g >
	<polyline id="trenddx_2" fill="none" stroke="#3DCFD6" stroke-miterlimit="10" points="35.08,0.02 34.71,9.44 35.01,17.03 
		34.71,26.71 34.05,32.73 34.05,40.58 33.13,48.69 30.03,56.28 33,64.13 34.25,71.72 34.38,79.83 34.98,93.44 34.98,110.44 
		34.65,118.03 35.31,124.84 34.51,133.47 35.31,140.54 35.31,156.5 34.65,163.56 35.31,171.68 35.31,210.4 29.24,218.26 
		12.41,232.39 13.99,241.02 24.62,248.09 29.3,255.94 32.4,270.07 33.66,279.23 33.72,286.55 33,301.73 31.02,309.58 30.42,317.43 
		28.91,326.07 28.77,332.87 24.29,340.46 0.67,355.64 5.35,364.01 3.17,371.34 7,379.45 2.91,387.3 8.85,395.15 9.9,402.74 
		14.59,410.06 14.26,416.87 14.32,425.24 10.17,432.83 12.34,440.68 17.29,448.01 21.19,456.38 21.05,463.45 20.66,472.34 
		22.31,479.15 21.71,486.47 22.11,495.89 23.5,502.44 20.79,509.24 19.21,517.87 20.26,525.72 20,532.53 16.57,539.86 10.63,548.49 
		9.51,555.82 10.83,563.93 17.56,579.11 17.49,586.7 20.66,594.81 24.55,602.66 26.27,609.72 22.62,617.42 	"/>
</g>

</svg>
