<?xml version="1.0" encoding="utf-8"?>
<!-- Generator: Adobe Illustrator 24.1.2, SVG Export Plug-In . SVG Version: 6.00 Build 0)  -->
<svg  version="1.1" xmlns="http://www.w3.org/2000/svg" xmlns:xlink="http://www.w3.org/1999/xlink" x="0px" y="0px"
	 viewBox="0 0 23.09 617.55" enable-background="new 0 0 23.09 617.55" xml:space="preserve">
<g >
</g>
<g id="trenitalia">
	<polyline id="trenitalia_1_" fill="none" stroke="#3C2FE9" stroke-miterlimit="10" points="4.41,0.22 9.04,9.9 9.04,17.48 
		6.69,25.86 7.44,33.97 6.24,41.04 6.69,48.89 5.83,57 7.24,64.33 7.24,72.18 4.33,80.03 7.54,87.61 7.44,95.2 1.22,102.27 
		0.52,111.17 9.04,118.49 7.44,125.03 4.78,133.41 4.23,141.26 5.83,149.11 4.33,156.44 3.63,164.02 6.34,172.4 3.03,187.31 
		4.78,202.75 3.63,218.71 8.24,225.78 5.33,232.84 3.63,241.74 9.04,249.33 12.45,257.18 12.45,272.88 13.06,280.47 13.96,286.49 
		10.95,294.34 11.75,303.24 13.96,310.56 13.96,318.15 13.36,324.69 13.26,334.38 12.15,341.7 17.17,348.77 16.47,356.88 
		18.07,364.21 18.97,380.17 18.97,395.61 20.28,402.93 20.78,410.78 20.78,419.42 20.28,424.65 20.08,433.03 21.38,441.14 
		21.38,448.73 21.98,456.32 21.98,496.09 22.58,502.63 21.88,510.48 21.78,533.51 21.08,541.62 22.58,556.54 21.78,563.6 
		22.08,580.09 21.18,587.94 21.98,595 21.98,602.85 22.58,610.71 22.02,617.51 	"/>
</g>

</svg>
