<?xml version="1.0" encoding="utf-8"?>
<!-- Generator: Adobe Illustrator 24.1.2, SVG Export Plug-In . SVG Version: 6.00 Build 0)  -->
<svg version="1.1" xmlns="http://www.w3.org/2000/svg" xmlns:xlink="http://www.w3.org/1999/xlink" x="0px" y="0px"
	 viewBox="0 0 390.5 617.9" enable-background="new 0 0 390.5 617.9" xml:space="preserve">
<g id="news_pubblicate">
	<path id="trend" fill="none" stroke="#6699FF" stroke-miterlimit="10" d="M-478.21,4.76l25.87,8.55l-13.95,7.87l-0.55,7.87
		l-11.38,7.87l12.11,6.84l0.83,8.21l-12.94,7.87v15.73l11.93,7.18l-11.93,7.87l12.94,7.87l-12.94,8.21v14.7l12.94,7.52l-12.94,7.87
		v7.52l18.53,7.18l-6.42,8.21l-12.11,7.87v7.18l13.76,8.21l32.11,7.52l-22.94,7.52l-11.93,7.87l1.47,5.81l0.18,8.97l0.92,7.45
		l5.69,8.21l-19.27,8.55v14.7l11.38,7.87l0.73,7.18l-12.11,8.21v6.08l11.19,8.62l0.18,7.18l10.09,7.87l1.47,8.21l-22.94,7.87
		l35.97,6.84l5.87,8.55l-6.61,7.87l-24.59,7.18l54.31,7.87l-64.96,6.82l21.84,8.57l-21.84,7.87l23.49,8.18l8.99,6.62v7.41
		l-21.65,8.12v8.11l16.51,6.5l-9.05,8.97c0,0,5.08,6.84,4.65,7.3c-0.43,0.46-14.8,7.3-14.8,7.3l19.08,7.75l-19.08,7.52l19.21,8.21
		l-20.06,7.75l15.17,7.07l-21.65,7.3l-0.12,2.74l9.54,5.7v7.75l18.84,7.52l-29.05,7.3l11.19,7.75l1.1,6.84v9.12l-11.62,7.3
		l11.13,7.98l-11.8,7.52l11.68,7.3v8.44l-11.68,7.75l24.89,15.27"/>
	<path id="trend_1_" fill="none" stroke="#6699FF" stroke-miterlimit="10" d="M-82.02,1.09l25.87,8.55l-13.95,7.87l-0.55,7.87
		l-11.38,7.87l12.11,6.84l0.83,8.21l-12.94,7.87v15.73l11.93,7.18l-11.93,7.87l12.94,7.87L-82.02,103v14.7l12.94,7.52l-12.94,7.87
		v7.52l18.53,7.18L-69.9,156l-12.11,7.87v7.18l13.76,8.21l32.11,7.52l-22.94,7.52l-11.93,7.87l1.47,5.81l0.18,8.97l0.92,7.45
		l5.69,8.21l-19.27,8.55v14.7l11.38,7.87l0.73,7.18l-12.11,8.21v6.08l11.19,8.62l0.18,7.18l10.09,7.87l1.47,8.21l-22.94,7.87
		l35.97,6.84l5.87,8.55l-6.61,7.87l-24.59,7.18l54.31,7.87l-64.96,6.82l21.84,8.57l-21.84,7.87l23.49,8.18l8.99,6.62v7.41
		l-21.65,8.12v8.11l16.51,6.5l-9.05,8.97c0,0,5.08,6.84,4.65,7.3c-0.43,0.46-14.8,7.3-14.8,7.3l19.08,7.75l-19.08,7.52l19.21,8.21
		l-20.06,7.75l15.17,7.07l-21.65,7.3l-0.12,2.74l9.54,5.7v7.75l18.84,7.52l-29.05,7.3l11.19,7.75l1.1,6.84v9.12l-11.62,7.3
		l11.13,7.98l-11.8,7.52l11.68,7.3v8.44l-11.68,7.75l24.89,15.27"/>
</g>
<g id="trenitalia">
	<polyline id="trenitalia_44_" fill="none" stroke="#3C2FE9" stroke-miterlimit="10" points="-161.71,3.87 -157.08,13.56 
		-157.08,21.14 -159.43,29.52 -158.68,37.63 -159.89,44.69 -159.43,52.54 -160.29,60.66 -158.88,67.98 -158.88,75.83 -161.79,83.68 
		-158.58,91.27 -158.68,98.86 -164.9,105.93 -165.6,114.82 -157.08,122.15 -158.68,128.69 -161.34,137.07 -161.89,144.92 
		-160.29,152.77 -161.79,160.09 -162.49,167.68 -159.78,176.06 -163.09,190.97 -161.34,206.41 -162.49,222.37 -157.88,229.44 
		-160.79,236.5 -162.49,245.4 -157.08,252.99 -153.67,260.84 -153.67,276.54 -153.06,284.13 -152.16,290.15 -155.17,298 
		-154.37,306.89 -152.16,314.22 -152.16,321.81 -152.76,328.35 -152.86,338.03 -153.97,345.36 -148.95,352.43 -149.65,360.54 
		-148.05,367.86 -147.15,383.83 -147.15,399.27 -145.84,406.59 -145.34,414.44 -145.34,423.08 -145.84,428.31 -146.04,436.69 
		-144.74,444.8 -144.74,452.39 -144.14,459.98 -144.14,499.75 -143.54,506.29 -144.24,514.14 -144.34,537.17 -145.04,545.28 
		-143.54,560.2 -144.34,567.26 -144.04,583.75 -144.94,591.6 -144.14,598.66 -144.14,606.51 -143.54,614.36 -144.1,621.17 	"/>
	<polyline id="trenitalia_1_" fill="none" stroke="#3C2FE9" stroke-miterlimit="10" points="507.47,0.83 512.11,10.51 512.11,18.1 
		509.75,26.47 510.51,34.58 509.3,41.65 509.75,49.5 508.9,57.61 510.3,64.94 510.3,72.79 507.4,80.64 510.61,88.23 510.51,95.82 
		504.29,102.88 503.58,111.78 512.11,119.11 510.51,125.65 507.85,134.02 507.3,141.87 508.9,149.72 507.4,157.05 506.69,164.64 
		509.4,173.01 506.09,187.93 507.85,203.37 506.69,219.33 511.31,226.39 508.4,233.46 506.69,242.36 512.11,249.94 515.52,257.79 
		515.52,273.5 516.12,281.08 517.02,287.1 514.02,294.95 514.82,303.85 517.02,311.18 517.02,318.77 516.42,325.31 516.32,334.99 
		515.22,342.32 520.23,349.38 519.53,357.49 521.14,364.82 522.04,380.78 522.04,396.22 523.34,403.55 523.84,411.4 523.84,420.03 
		523.34,425.27 523.14,433.64 524.45,441.75 524.45,449.34 525.05,456.93 525.05,496.71 525.65,503.25 524.95,511.1 524.85,534.13 
		524.15,542.24 525.65,557.15 524.85,564.22 525.15,580.7 524.25,588.55 525.05,595.62 525.05,603.47 525.65,611.32 525.09,618.12 	
		"/>
</g>
<g id="supermercati">
	<path id="supermercati_44_" fill="none" stroke="#C43EC8" stroke-miterlimit="10" d="M-144.05,3.87l0.51,10.03l-0.37,7.15v8.37
		l0.74,7.33v23.2l-0.37,6.45l-0.37,11.69l0.74,5.06v34.54l-0.36,11.34l-0.37,7.85v9.25l0.74,5.23v9.77l-0.74,6.8l0.74,7.68
		l-0.37,6.63l-0.37,10.12l0.74,4.19v23.73l-0.74,8.9l-5.35,7.5v7.85l4.55,7.85l0.8,7.33l-0.07,31.4l0.44,5.93v16.92l-0.51,6.98
		l0.87,7.02l-0.36,8.85l-3.45,7.33v7.15l-5.68,8.55l4.62,8.02l-1.61,6.8l-8.02,8.37l10.9,23.03l-1.07,7.5l0.8,8.55l-0.87,6.8
		l-8.29,15.88l3.21,6.63l4.35,8.55l1.67,7.33l0.47,6.98l-0.13,5.41l-1,9.07l-0.47,2.62l-2.61,7.15l2.81,7.85l1.67,8.2l0.94,7.15
		v15.18l-1.2,7.5l0.67,8.02l-1.14,7.33c0,0,1.04,7.15,1.07,7.68c0.03,0.52,0.67,7.5,0.67,7.5l-0.13,8.9l-1.07,6.98l-0.47,8.02
		l-1.2,7.33l1.74,7.85l-2.21,7.15"/>
	<path id="supermercati_1_" fill="none" stroke="#C43EC8" stroke-miterlimit="10" d="M583.9,0.64l0.51,10.03l-0.37,7.15v8.37
		l0.74,7.33v23.2l-0.37,6.45l-0.37,11.69l0.74,5.06v34.54l-0.36,11.34l-0.37,7.85v9.25l0.74,5.23v9.77l-0.74,6.8l0.74,7.68
		l-0.37,6.63l-0.37,10.12l0.74,4.19v23.73l-0.74,8.9l-5.35,7.5v7.85l4.55,7.85l0.8,7.33l-0.07,31.4l0.44,5.93v16.92l-0.51,6.98
		l0.87,7.02l-0.36,8.85l-3.45,7.33v7.15l-5.68,8.55l4.62,8.02l-1.61,6.8l-8.02,8.37l10.9,23.03l-1.07,7.5l0.8,8.55l-0.87,6.8
		l-8.29,15.88l3.21,6.63l4.35,8.55l1.67,7.33l0.47,6.98l-0.13,5.41l-1,9.07l-0.47,2.62l-2.61,7.15l2.81,7.85l1.67,8.2l0.94,7.15
		v15.18l-1.2,7.5l0.67,8.02l-1.14,7.33c0,0,1.04,7.15,1.07,7.68c0.03,0.52,0.67,7.5,0.67,7.5l-0.13,8.9l-1.07,6.98l-0.47,8.02
		l-1.2,7.33l1.74,7.85l-2.21,7.15"/>
</g>
<g id="mascherine">
	<polyline id="mascherine_43_" fill="none" stroke="#3DCFD6" stroke-miterlimit="10" points="-142.54,3.87 -142.9,13.29 
		-142.6,20.88 -142.9,30.56 -143.56,36.58 -143.56,44.43 -144.48,52.54 -147.58,60.13 -144.61,67.98 -143.36,75.57 -143.23,83.68 
		-142.63,97.29 -142.63,114.3 -142.96,121.89 -142.3,128.69 -143.1,137.33 -142.3,144.39 -142.3,160.36 -142.96,167.42 
		-142.3,175.53 -142.3,214.26 -148.37,222.11 -165.2,236.24 -163.62,244.88 -152.99,251.94 -148.31,259.79 -145.21,273.92 
		-143.95,283.08 -143.89,290.41 -144.61,305.59 -146.59,313.44 -147.19,321.29 -148.7,329.92 -148.84,336.73 -153.32,344.31 
		-176.95,359.49 -172.26,367.86 -174.44,375.19 -170.61,383.3 -174.7,391.15 -168.76,399 -167.71,406.59 -163.02,413.92 
		-163.35,420.72 -163.29,429.1 -167.44,436.69 -165.27,444.54 -160.32,451.86 -156.42,460.24 -156.56,467.3 -156.95,476.2 
		-155.3,483 -155.9,490.33 -155.5,499.75 -154.12,506.29 -156.82,513.1 -158.4,521.73 -157.35,529.58 -157.61,536.38 
		-161.04,543.71 -166.98,552.35 -168.1,559.67 -166.78,567.79 -160.05,582.96 -160.12,590.55 -156.95,598.66 -153.06,606.51 
		-151.34,613.58 -154.99,621.28 	"/>
	<polyline id="mascherine_1_" fill="none" stroke="#3DCFD6" stroke-miterlimit="10" points="565.49,0.63 565.13,10.05 565.42,17.64 
		565.13,27.32 564.47,33.34 564.47,41.19 563.54,49.3 560.44,56.89 563.41,64.74 564.66,72.33 564.8,80.44 565.39,94.05 
		565.39,111.06 565.06,118.65 565.72,125.45 564.93,134.09 565.72,141.15 565.72,157.11 565.06,164.18 565.72,172.29 565.72,211.02 
		559.65,218.87 542.82,233 544.41,241.64 555.03,248.7 559.72,256.55 562.82,270.68 564.07,279.84 564.14,287.17 563.41,302.34 
		561.43,310.19 560.84,318.05 559.32,326.68 559.19,333.48 554.7,341.07 531.08,356.25 535.76,364.62 533.59,371.95 537.41,380.06 
		533.32,387.91 539.26,395.76 540.32,403.35 545,410.68 544.67,417.48 544.74,425.86 540.58,433.44 542.76,441.29 547.71,448.62 
		551.6,457 551.47,464.06 551.07,472.96 552.72,479.76 552.13,487.09 552.52,496.51 553.91,503.05 551.2,509.85 549.62,518.49 
		550.68,526.34 550.41,533.14 546.98,540.47 541.04,549.11 539.92,556.43 541.24,564.54 547.97,579.72 547.91,587.31 551.07,595.42 
		554.97,603.27 556.68,610.34 553.04,618.03 	"/>
</g>
<g id="linee">
	
		<line id="_x31_3_aprile" opacity="0.15" fill="#FFFFFF" stroke="#1D1D1B" stroke-width="0.2676" stroke-miterlimit="10" x1="-513.48" y1="621.91" x2="-122.98" y2="621.91"/>
	
		<line id="_x30_6_aprile" opacity="0.15" fill="#FFFFFF" stroke="#1D1D1B" stroke-width="0.2676" stroke-miterlimit="10" x1="-513.48" y1="567.87" x2="-122.98" y2="567.87"/>
	
		<line id="_x33_0_marzo" opacity="0.15" fill="#FFFFFF" stroke="#1D1D1B" stroke-width="0.2676" stroke-miterlimit="10" x1="-513.48" y1="513.82" x2="-122.98" y2="513.82"/>
	
		<line id="_x32_3_marzo" opacity="0.15" fill="#FFFFFF" stroke="#1D1D1B" stroke-width="0.2676" stroke-miterlimit="10" x1="-513.48" y1="459.78" x2="-122.98" y2="459.78"/>
	
		<line id="_x31_6_marzo" opacity="0.15" fill="#FFFFFF" stroke="#1D1D1B" stroke-width="0.2676" stroke-miterlimit="10" x1="-513.48" y1="405.74" x2="-122.98" y2="405.74"/>
	
		<line id="_x31_0_marzo" opacity="0.15" fill="#FFFFFF" stroke="#1D1D1B" stroke-width="0.2676" stroke-miterlimit="10" x1="-513.48" y1="359.42" x2="-122.98" y2="359.42"/>
	
		<line id="_x30_9_marzo" opacity="0.15" fill="#FFFFFF" stroke="#1D1D1B" stroke-width="0.2676" stroke-miterlimit="10" x1="-513.48" y1="351.7" x2="-122.98" y2="351.7"/>
	
		<line id="_x30_7_marzo" opacity="0.15" fill="#FFFFFF" stroke="#1D1D1B" stroke-width="0.2676" stroke-miterlimit="10" x1="-513.48" y1="336.26" x2="-122.98" y2="336.26"/>
	
		<line id="_x30_2_marzo" opacity="0.15" fill="#FFFFFF" stroke="#1D1D1B" stroke-width="0.2676" stroke-miterlimit="10" x1="-513.48" y1="297.65" x2="-122.98" y2="297.65"/>
	
		<line id="_x32_4_febbraio" opacity="0.15" fill="#FFFFFF" stroke="#1D1D1B" stroke-width="0.2676" stroke-miterlimit="10" x1="-513.48" y1="243.61" x2="-122.98" y2="243.61"/>
	
		<line id="_x31_7_febbraio" opacity="0.15" fill="#FFFFFF" stroke="#1D1D1B" stroke-width="0.2676" stroke-miterlimit="10" x1="-513.48" y1="189.57" x2="-122.98" y2="189.57"/>
	
		<line id="_x31_0_febbraio" opacity="0.15" fill="#FFFFFF" stroke="#1D1D1B" stroke-width="0.2676" stroke-miterlimit="10" x1="-513.48" y1="135.53" x2="-122.98" y2="135.53"/>
	
		<line id="_x30_3_febbraio" opacity="0.15" fill="#FFFFFF" stroke="#1D1D1B" stroke-width="0.2676" stroke-miterlimit="10" x1="-513.48" y1="81.48" x2="-122.98" y2="81.48"/>
	
		<line id="_x33_1_gennaio" opacity="0.15" fill="#FFFFFF" stroke="#1D1D1B" stroke-width="0.2676" stroke-miterlimit="10" x1="-513.48" y1="59.88" x2="-122.98" y2="59.88"/>
	
		<line id="_x32_9_gennaio" opacity="0.15" fill="#FFFFFF" stroke="#1D1D1B" stroke-width="0.2676" stroke-miterlimit="10" x1="-513.48" y1="42.88" x2="-122.98" y2="42.88"/>
	
		<line id="_x32_7_gennaio" opacity="0.15" fill="#FFFFFF" stroke="#1D1D1B" stroke-width="0.2676" stroke-miterlimit="10" x1="-513.48" y1="27.44" x2="-122.98" y2="27.44"/>
	
		<line id="_x32_6_gennaio" opacity="0.15" fill="#FFFFFF" stroke="#1D1D1B" stroke-width="0.2676" stroke-miterlimit="10" x1="-513.48" y1="19.72" x2="-122.98" y2="19.72"/>
	
		<line id="_x32_4_gennaio" opacity="0.15" fill="#FFFFFF" stroke="#1D1D1B" stroke-width="0.2676" stroke-miterlimit="10" x1="-513.48" y1="4.28" x2="-122.98" y2="4.28"/>
	
		<line id="_x32_7_gennaio_1_" opacity="0.15" fill="#FFFFFF" stroke="#1D1D1B" stroke-width="0.2676" stroke-miterlimit="10" x1="-513.48" y1="27.44" x2="-122.98" y2="27.44"/>
	
		<line id="_x31_3_aprile_1_" opacity="0.15" fill="#FFFFFF" stroke="#1D1D1B" stroke-width="0.2676" stroke-miterlimit="10" x1="-513.48" y1="621.91" x2="-122.98" y2="621.91"/>
	
		<line id="_x30_6_aprile_1_" opacity="0.15" fill="#FFFFFF" stroke="#1D1D1B" stroke-width="0.2676" stroke-miterlimit="10" x1="-513.48" y1="567.87" x2="-122.98" y2="567.87"/>
	
		<line id="_x33_0_marzo_1_" opacity="0.15" fill="#FFFFFF" stroke="#1D1D1B" stroke-width="0.2676" stroke-miterlimit="10" x1="-513.48" y1="513.82" x2="-122.98" y2="513.82"/>
	
		<line id="_x32_3_marzo_1_" opacity="0.15" fill="#FFFFFF" stroke="#1D1D1B" stroke-width="0.2676" stroke-miterlimit="10" x1="-513.48" y1="459.78" x2="-122.98" y2="459.78"/>
	
		<line id="_x31_6_marzo_1_" opacity="0.15" fill="#FFFFFF" stroke="#1D1D1B" stroke-width="0.2676" stroke-miterlimit="10" x1="-513.48" y1="405.74" x2="-122.98" y2="405.74"/>
	
		<line id="_x31_0_marzo_1_" opacity="0.15" fill="#FFFFFF" stroke="#1D1D1B" stroke-width="0.2676" stroke-miterlimit="10" x1="-513.48" y1="359.42" x2="-122.98" y2="359.42"/>
	
		<line id="_x30_9_marzo_1_" opacity="0.15" fill="#FFFFFF" stroke="#1D1D1B" stroke-width="0.2676" stroke-miterlimit="10" x1="-513.48" y1="351.7" x2="-122.98" y2="351.7"/>
	
		<line id="_x30_7_marzo_1_" opacity="0.15" fill="#FFFFFF" stroke="#1D1D1B" stroke-width="0.2676" stroke-miterlimit="10" x1="-513.48" y1="336.26" x2="-122.98" y2="336.26"/>
	
		<line id="_x30_2_marzo_1_" opacity="0.15" fill="#FFFFFF" stroke="#1D1D1B" stroke-width="0.2676" stroke-miterlimit="10" x1="-513.48" y1="297.65" x2="-122.98" y2="297.65"/>
	
		<line id="_x32_4_febbraio_1_" opacity="0.15" fill="#FFFFFF" stroke="#1D1D1B" stroke-width="0.2676" stroke-miterlimit="10" x1="-513.48" y1="243.61" x2="-122.98" y2="243.61"/>
	
		<line id="_x31_7_febbraio_1_" opacity="0.15" fill="#FFFFFF" stroke="#1D1D1B" stroke-width="0.2676" stroke-miterlimit="10" x1="-513.48" y1="189.57" x2="-122.98" y2="189.57"/>
	
		<line id="_x31_0_febbraio_1_" opacity="0.15" fill="#FFFFFF" stroke="#1D1D1B" stroke-width="0.2676" stroke-miterlimit="10" x1="-513.48" y1="135.53" x2="-122.98" y2="135.53"/>
	
		<line id="_x30_3_febbraio_1_" opacity="0.15" fill="#FFFFFF" stroke="#1D1D1B" stroke-width="0.2676" stroke-miterlimit="10" x1="-513.48" y1="81.48" x2="-122.98" y2="81.48"/>
	
		<line id="_x33_1_gennaio_1_" opacity="0.15" fill="#FFFFFF" stroke="#1D1D1B" stroke-width="0.2676" stroke-miterlimit="10" x1="-513.48" y1="59.88" x2="-122.98" y2="59.88"/>
	
		<line id="_x32_9_gennaio_1_" opacity="0.15" fill="#FFFFFF" stroke="#1D1D1B" stroke-width="0.2676" stroke-miterlimit="10" x1="-513.48" y1="42.88" x2="-122.98" y2="42.88"/>
	
		<line id="_x32_7_gennaio_3_" opacity="0.15" fill="#FFFFFF" stroke="#1D1D1B" stroke-width="0.2676" stroke-miterlimit="10" x1="-513.48" y1="27.44" x2="-122.98" y2="27.44"/>
	
		<line id="_x32_6_gennaio_1_" opacity="0.15" fill="#FFFFFF" stroke="#1D1D1B" stroke-width="0.2676" stroke-miterlimit="10" x1="-513.48" y1="19.72" x2="-122.98" y2="19.72"/>
	
		<line id="_x32_4_gennaio_1_" opacity="0.15" fill="#FFFFFF" stroke="#1D1D1B" stroke-width="0.2676" stroke-miterlimit="10" x1="-513.48" y1="4.28" x2="-122.98" y2="4.28"/>
	
		<line id="_x32_7_gennaio_2_" opacity="0.15" fill="#FFFFFF" stroke="#1D1D1B" stroke-width="0.2676" stroke-miterlimit="10" x1="-513.48" y1="27.44" x2="-122.98" y2="27.44"/>
	
		<line id="_x31_3_aprile_3_" opacity="0.15" fill="#FFFFFF" stroke="#1D1D1B" stroke-width="0.2676" stroke-miterlimit="10" x1="0" y1="617.76" x2="390.5" y2="617.76"/>
	
		<line id="_x30_6_aprile_3_" opacity="0.15" fill="#FFFFFF" stroke="#1D1D1B" stroke-width="0.2676" stroke-miterlimit="10" x1="0" y1="563.72" x2="390.5" y2="563.72"/>
	
		<line id="_x33_0_marzo_3_" opacity="0.15" fill="#FFFFFF" stroke="#1D1D1B" stroke-width="0.2676" stroke-miterlimit="10" x1="0" y1="509.68" x2="390.5" y2="509.68"/>
	
		<line id="_x32_3_marzo_3_" opacity="0.15" fill="#FFFFFF" stroke="#1D1D1B" stroke-width="0.2676" stroke-miterlimit="10" x1="0" y1="455.64" x2="390.5" y2="455.64"/>
	
		<line id="_x31_6_marzo_3_" opacity="0.15" fill="#FFFFFF" stroke="#1D1D1B" stroke-width="0.2676" stroke-miterlimit="10" x1="0" y1="401.59" x2="390.5" y2="401.59"/>
	
		<line id="_x31_0_marzo_3_" opacity="0.15" fill="#FFFFFF" stroke="#1D1D1B" stroke-width="0.2676" stroke-miterlimit="10" x1="0" y1="355.27" x2="390.5" y2="355.27"/>
	
		<line id="_x30_9_marzo_3_" opacity="0.15" fill="#FFFFFF" stroke="#1D1D1B" stroke-width="0.2676" stroke-miterlimit="10" x1="0" y1="347.55" x2="390.5" y2="347.55"/>
	
		<line id="_x30_7_marzo_3_" opacity="0.15" fill="#FFFFFF" stroke="#1D1D1B" stroke-width="0.2676" stroke-miterlimit="10" x1="0" y1="332.11" x2="390.5" y2="332.11"/>
	
		<line id="_x30_2_marzo_3_" opacity="0.15" fill="#FFFFFF" stroke="#1D1D1B" stroke-width="0.2676" stroke-miterlimit="10" x1="0" y1="293.51" x2="390.5" y2="293.51"/>
	
		<line id="_x32_4_febbraio_3_" opacity="0.15" fill="#FFFFFF" stroke="#1D1D1B" stroke-width="0.2676" stroke-miterlimit="10" x1="0" y1="239.47" x2="390.5" y2="239.47"/>
	
		<line id="_x31_7_febbraio_3_" opacity="0.15" fill="#FFFFFF" stroke="#1D1D1B" stroke-width="0.2676" stroke-miterlimit="10" x1="0" y1="185.42" x2="390.5" y2="185.42"/>
	
		<line id="_x31_0_febbraio_3_" opacity="0.15" fill="#FFFFFF" stroke="#1D1D1B" stroke-width="0.2676" stroke-miterlimit="10" x1="0" y1="131.38" x2="390.5" y2="131.38"/>
	
		<line id="_x30_3_febbraio_3_" opacity="0.15" fill="#FFFFFF" stroke="#1D1D1B" stroke-width="0.2676" stroke-miterlimit="10" x1="0" y1="77.34" x2="390.5" y2="77.34"/>
	
		<line id="_x33_1_gennaio_3_" opacity="0.15" fill="#FFFFFF" stroke="#1D1D1B" stroke-width="0.2676" stroke-miterlimit="10" x1="0" y1="55.74" x2="390.5" y2="55.74"/>
	
		<line id="_x32_9_gennaio_3_" opacity="0.15" fill="#FFFFFF" stroke="#1D1D1B" stroke-width="0.2676" stroke-miterlimit="10" x1="0" y1="38.74" x2="390.5" y2="38.74"/>
	
		<line id="_x32_7_gennaio_7_" opacity="0.15" fill="#FFFFFF" stroke="#1D1D1B" stroke-width="0.2676" stroke-miterlimit="10" x1="0" y1="23.29" x2="390.5" y2="23.29"/>
	
		<line id="_x32_6_gennaio_3_" opacity="0.15" fill="#FFFFFF" stroke="#1D1D1B" stroke-width="0.2676" stroke-miterlimit="10" x1="0" y1="15.57" x2="390.5" y2="15.57"/>
	
		<line id="_x32_4_gennaio_3_" opacity="0.15" fill="#FFFFFF" stroke="#1D1D1B" stroke-width="0.2676" stroke-miterlimit="10" x1="0" y1="0.13" x2="390.5" y2="0.13"/>
</g>
<g id="date">
	<rect x="-354.05" y="614.25" fill="none" width="89.58" height="4.66"/>
	
		<text transform="matrix(1 0 0 1 -332.1285 618.4632)" opacity="0.3" fill="#1D1D1B" font-family="'Sole24Sans-LightExtended'" font-size="6px">13 APRILE 2020</text>
	<rect x="-354.05" y="560.21" fill="none" width="89.58" height="4.66"/>
	
		<text transform="matrix(1 0 0 1 -332.1285 564.4207)" opacity="0.3" fill="#1D1D1B" font-family="'Sole24Sans-LightExtended'" font-size="6px">06 APRILE 2020</text>
	<rect x="-354.05" y="506.17" fill="none" width="89.58" height="4.66"/>
	
		<text transform="matrix(1 0 0 1 -332.3805 510.3778)" opacity="0.3" fill="#1D1D1B" font-family="'Sole24Sans-LightExtended'" font-size="6px">30 MARZO 2020</text>
	<rect x="-354.05" y="451.91" fill="none" width="89.58" height="4.66"/>
	
		<text transform="matrix(1 0 0 1 -332.3805 456.1258)" opacity="0.3" fill="#1D1D1B" font-family="'Sole24Sans-LightExtended'" font-size="6px">23 MARZO 2020</text>
	<rect x="-354.05" y="398.08" fill="none" width="89.58" height="4.66"/>
	
		<text transform="matrix(1 0 0 1 -332.3805 402.2928)" opacity="0.3" fill="#1D1D1B" font-family="'Sole24Sans-LightExtended'" font-size="6px">16 MARZO 2020</text>
	<rect x="-354.05" y="351.76" fill="none" width="89.58" height="4.66"/>
	
		<text transform="matrix(1 0 0 1 -332.3805 355.9705)" opacity="0.3" fill="#1D1D1B" font-family="'Sole24Sans-LightExtended'" font-size="6px">10 MARZO 2020</text>
	<rect x="-354.05" y="344.04" fill="none" width="89.58" height="4.66"/>
	
		<text transform="matrix(1 0 0 1 -332.3805 348.2498)" opacity="0.3" fill="#1D1D1B" font-family="'Sole24Sans-LightExtended'" font-size="6px">09 MARZO 2020</text>
	<rect x="-354.05" y="328.47" fill="none" width="89.58" height="4.66"/>
	
		<text transform="matrix(1 0 0 1 -332.3805 332.6849)" opacity="0.3" fill="#1D1D1B" font-family="'Sole24Sans-LightExtended'" font-size="6px">07 MARZO 2020</text>
	<rect x="-354.05" y="289.9" fill="none" width="89.58" height="4.66"/>
	
		<text transform="matrix(1 0 0 1 -332.3805 294.1172)" opacity="0.3" fill="#1D1D1B" font-family="'Sole24Sans-LightExtended'" font-size="6px">02 MARZO 2020</text>
	<rect x="-354.05" y="235.95" fill="none" width="89.58" height="4.66"/>
	
		<text transform="matrix(1 0 0 1 -336.5533 240.1656)" opacity="0.3" fill="#1D1D1B" font-family="'Sole24Sans-LightExtended'" font-size="6px">24 FEBBRAIO 2020</text>
	<rect x="-354.05" y="181.91" fill="none" width="89.58" height="4.66"/>
	
		<text transform="matrix(1 0 0 1 -336.5533 186.1226)" opacity="0.3" fill="#1D1D1B" font-family="'Sole24Sans-LightExtended'" font-size="6px">17 FEBBRAIO 2020</text>
	<rect x="-354.05" y="127.87" fill="none" width="89.58" height="4.66"/>
	
		<text transform="matrix(1 0 0 1 -336.5533 132.0801)" opacity="0.3" fill="#1D1D1B" font-family="'Sole24Sans-LightExtended'" font-size="6px">10 FEBBRAIO 2020</text>
	<rect x="-354.05" y="76.15" fill="none" width="89.58" height="4.66"/>
	
		<text transform="matrix(1 0 0 1 -336.5533 80.3663)" opacity="0.3" fill="#1D1D1B" font-family="'Sole24Sans-LightExtended'" font-size="6px">03 FEBBRAIO 2020</text>
	<rect x="-354.05" y="51.78" fill="none" width="89.58" height="4.66"/>
	
		<text transform="matrix(1 0 0 1 -335.5572 55.9947)" opacity="0.3" fill="#1D1D1B" font-family="'Sole24Sans-LightExtended'" font-size="6px">31 GENNAIO 2020</text>
	<rect x="-354.05" y="34.78" fill="none" width="89.58" height="4.66"/>
	
		<text transform="matrix(1 0 0 1 -335.5572 38.9947)" opacity="0.3" fill="#1D1D1B" font-family="'Sole24Sans-LightExtended'" font-size="6px">29 GENNAIO 2020</text>
	<rect x="-354.05" y="21.25" fill="none" width="89.58" height="4.66"/>
	
		<text transform="matrix(1 0 0 1 -335.5572 25.4634)" opacity="0.3" fill="#1D1D1B" font-family="'Sole24Sans-LightExtended'" font-size="6px">27 GENNAIO 2020</text>
	<rect x="-354.05" y="12.32" fill="none" width="89.58" height="4.66"/>
	
		<text transform="matrix(1 0 0 1 -335.5572 16.5333)" opacity="0.3" fill="#1D1D1B" font-family="'Sole24Sans-LightExtended'" font-size="6px">26 GENNAIO 2020</text>
	<rect x="-354.05" y="-3.42" fill="none" width="89.58" height="4.66"/>
	
		<text transform="matrix(1 0 0 1 -335.5572 0.796)" opacity="0.3" fill="#1D1D1B" font-family="'Sole24Sans-LightExtended'" font-size="6px">24 GENNAIO 2020</text>
	<rect x="400.91" y="615.81" fill="none" width="89.58" height="4.66"/>
	
		<text transform="matrix(1 0 0 1 422.8284 620.0182)" opacity="0.3" fill="#1D1D1B" font-family="'Sole24Sans-LightExtended'" font-size="6px">13 APRILE 2020</text>
	<rect x="400.91" y="561.76" fill="none" width="89.58" height="4.66"/>
	
		<text transform="matrix(1 0 0 1 422.8284 565.9758)" opacity="0.3" fill="#1D1D1B" font-family="'Sole24Sans-LightExtended'" font-size="6px">06 APRILE 2020</text>
	<rect x="400.91" y="507.72" fill="none" width="89.58" height="4.66"/>
	
		<text transform="matrix(1 0 0 1 422.5764 511.9328)" opacity="0.3" fill="#1D1D1B" font-family="'Sole24Sans-LightExtended'" font-size="6px">30 MARZO 2020</text>
	<rect x="400.91" y="453.47" fill="none" width="89.58" height="4.66"/>
	
		<text transform="matrix(1 0 0 1 422.5764 457.6808)" opacity="0.3" fill="#1D1D1B" font-family="'Sole24Sans-LightExtended'" font-size="6px">23 MARZO 2020</text>
	<rect x="400.91" y="399.64" fill="none" width="89.58" height="4.66"/>
	
		<text transform="matrix(1 0 0 1 422.5764 403.8478)" opacity="0.3" fill="#1D1D1B" font-family="'Sole24Sans-LightExtended'" font-size="6px">16 MARZO 2020</text>
	<rect x="400.91" y="353.31" fill="none" width="89.58" height="4.66"/>
	
		<text transform="matrix(1 0 0 1 422.5764 357.5256)" opacity="0.3" fill="#1D1D1B" font-family="'Sole24Sans-LightExtended'" font-size="6px">10 MARZO 2020</text>
	<rect x="400.91" y="345.59" fill="none" width="89.58" height="4.66"/>
	
		<text transform="matrix(1 0 0 1 422.5764 349.8049)" opacity="0.3" fill="#1D1D1B" font-family="'Sole24Sans-LightExtended'" font-size="6px">09 MARZO 2020</text>
	<rect x="400.91" y="330.03" fill="none" width="89.58" height="4.66"/>
	
		<text transform="matrix(1 0 0 1 422.5764 334.2399)" opacity="0.3" fill="#1D1D1B" font-family="'Sole24Sans-LightExtended'" font-size="6px">07 MARZO 2020</text>
	<rect x="400.91" y="291.46" fill="none" width="89.58" height="4.66"/>
	
		<text transform="matrix(1 0 0 1 422.5764 295.6723)" opacity="0.3" fill="#1D1D1B" font-family="'Sole24Sans-LightExtended'" font-size="6px">02 MARZO 2020</text>
	<rect x="400.91" y="237.51" fill="none" width="89.58" height="4.66"/>
	
		<text transform="matrix(1 0 0 1 418.4036 241.7206)" opacity="0.3" fill="#1D1D1B" font-family="'Sole24Sans-LightExtended'" font-size="6px">24 FEBBRAIO 2020</text>
	<rect x="400.91" y="183.46" fill="none" width="89.58" height="4.66"/>
	
		<text transform="matrix(1 0 0 1 418.4036 187.6777)" opacity="0.3" fill="#1D1D1B" font-family="'Sole24Sans-LightExtended'" font-size="6px">17 FEBBRAIO 2020</text>
	<rect x="400.91" y="129.42" fill="none" width="89.58" height="4.66"/>
	
		<text transform="matrix(1 0 0 1 418.4036 133.6352)" opacity="0.3" fill="#1D1D1B" font-family="'Sole24Sans-LightExtended'" font-size="6px">10 FEBBRAIO 2020</text>
	<rect x="400.91" y="77.71" fill="none" width="89.58" height="4.66"/>
	
		<text transform="matrix(1 0 0 1 418.4036 81.9213)" opacity="0.3" fill="#1D1D1B" font-family="'Sole24Sans-LightExtended'" font-size="6px">03 FEBBRAIO 2020</text>
	<rect x="400.91" y="53.34" fill="none" width="89.58" height="4.66"/>
	
		<text transform="matrix(1 0 0 1 419.3997 57.5497)" opacity="0.3" fill="#1D1D1B" font-family="'Sole24Sans-LightExtended'" font-size="6px">31 GENNAIO 2020</text>
	<rect x="400.91" y="36.34" fill="none" width="89.58" height="4.66"/>
	
		<text transform="matrix(1 0 0 1 419.3997 40.5497)" opacity="0.3" fill="#1D1D1B" font-family="'Sole24Sans-LightExtended'" font-size="6px">29 GENNAIO 2020</text>
	<rect x="400.91" y="22.81" fill="none" width="89.58" height="4.66"/>
	
		<text transform="matrix(1 0 0 1 419.3997 27.0184)" opacity="0.3" fill="#1D1D1B" font-family="'Sole24Sans-LightExtended'" font-size="6px">27 GENNAIO 2020</text>
	<rect x="400.91" y="13.88" fill="none" width="89.58" height="4.66"/>
	
		<text transform="matrix(1 0 0 1 419.3997 18.0883)" opacity="0.3" fill="#1D1D1B" font-family="'Sole24Sans-LightExtended'" font-size="6px">26 GENNAIO 2020</text>
	<rect x="400.91" y="-1.86" fill="none" width="89.58" height="4.66"/>
	
		<text transform="matrix(1 0 0 1 419.3997 2.351)" opacity="0.3" fill="#1D1D1B" font-family="'Sole24Sans-LightExtended'" font-size="6px">24 GENNAIO 2020</text>
</g>
</svg>
