<?xml version="1.0" encoding="utf-8"?>
<!-- Generator: Adobe Illustrator 24.1.2, SVG Export Plug-In . SVG Version: 6.00 Build 0)  -->
<svg id="supermercati" version="1.1" xmlns="http://www.w3.org/2000/svg" xmlns:xlink="http://www.w3.org/1999/xlink" x="0px" y="0px"
	 viewBox="0 0 15.61 617.47" enable-background="new 0 0 15.61 617.47" xml:space="preserve">

<g >
	<path id="trenddx_3" fill="none" stroke="#C43EC8" stroke-miterlimit="10" d="M14.24,0.03l0.51,10.03l-0.37,7.15v8.37
		l0.74,7.33v23.2l-0.37,6.45l-0.37,11.69l0.74,5.06v34.54l-0.36,11.34l-0.37,7.85v9.25l0.74,5.23v9.77l-0.74,6.8l0.74,7.68
		l-0.37,6.63l-0.37,10.12l0.74,4.19v23.73l-0.74,8.9l-5.35,7.5v7.85l4.55,7.85l0.8,7.33l-0.07,31.4l0.44,5.93v16.92l-0.51,6.98
		l0.87,7.02l-0.36,8.85l-3.45,7.33v7.15l-5.68,8.55l4.62,8.02l-1.61,6.8l-8.02,8.37l10.9,23.03l-1.07,7.5l0.8,8.55l-0.87,6.8
		l-8.29,15.88l3.21,6.63l4.35,8.55l1.67,7.33l0.47,6.98l-0.13,5.41l-1,9.07l-0.47,2.62l-2.61,7.15l2.81,7.85l1.67,8.2l0.94,7.15
		v15.18l-1.2,7.5l0.67,8.02l-1.14,7.33c0,0,1.04,7.15,1.07,7.68s0.67,7.5,0.67,7.5l-0.13,8.9l-1.07,6.98l-0.47,8.02l-1.2,7.33
		l1.74,7.85l-2.21,7.15"/>
</g>
</svg>
